# xmcd
#
# Track frame offsets: 
#        150
#        11345
#        22092
#        35305
#        48012
#        60202
#        74132
#        86400
#        104265
#        122747
#        136530
#        150827
#
# Disc length: 2184 seconds
#
# Revision: 1
# Processed by: cddbd v1.5.2PL0 Copyright (c) Steve Scherf et al.
# Submitted via: ExactAudioCopy v0.95b4
#
DISCID=8508860c
DTITLE=Voskopoulos - Unforgetable Hits
DYEAR=2001
DGENRE=Folklore
TTITLE0=I love you my Beauty
TTITLE1=To stop now is impossible
TTITLE2=Agony
TTITLE3=Leave the key in the door
TTITLE4=You are my burning desire
TTITLE5=You'll cry for me
TTITLE6=Love is not for sale
TTITLE7=It's late
TTITLE8=Angels do exist
TTITLE9=One year alone
TTITLE10=Every nightfall
TTITLE11=Permanent love
EXTD=
EXTT0=
EXTT1=
EXTT2=
EXTT3=
EXTT4=
EXTT5=
EXTT6=
EXTT7=
EXTT8=
EXTT9=
EXTT10=
EXTT11=
PLAYORDER=
